<svg xmlns="http://www.w3.org/2000/svg" viewBox="0 0 512 512" role="img">
  <title>CV Generator</title>
  <defs>
    <clipPath id="bg">
      <rect x="0" y="0" width="512" height="512" rx="112"/>
    </clipPath>
  </defs>
  <rect x="0" y="0" width="512" height="512" rx="112" fill="#1e40af"/>
  <rect x="0" y="0" width="512" height="270" rx="112" fill="#2563eb" clip-path="url(#bg)"/>
  <!-- Document: x:72–374, y:62–450 -->
  <rect x="72" y="62" width="302" height="388" rx="20" fill="#ffffff"/>
  <!-- Folded corner -->
  <polygon points="292,62 374,62 374,144" fill="#dbeafe"/>
  <polygon points="292,62 374,144 292,144" fill="#f8fafc"/>
  <line x1="292" y1="62"  x2="292" y2="144" stroke="#bfdbfe" stroke-width="2"/>
  <line x1="292" y1="144" x2="374" y2="144" stroke="#bfdbfe" stroke-width="2"/>
  <!-- Text line hints -->
  <rect x="96" y="178" width="92"  height="12" rx="6"   fill="#1d4ed8" opacity="0.75"/>
  <rect x="96" y="200" width="140" height="9"  rx="4.5" fill="#94a3b8" opacity="0.5"/>
  <rect x="96" y="218" width="112" height="9"  rx="4.5" fill="#94a3b8" opacity="0.35"/>
  <rect x="96" y="248" width="62"  height="9"  rx="4.5" fill="#cbd5e1" opacity="0.5"/>
  <rect x="96" y="266" width="120" height="8"  rx="4"   fill="#e2e8f0" opacity="0.6"/>
  <rect x="96" y="282" width="96"  height="8"  rx="4"   fill="#e2e8f0" opacity="0.4"/>
  <rect x="96" y="312" width="62"  height="9"  rx="4.5" fill="#cbd5e1" opacity="0.5"/>
  <rect x="96" y="330" width="135" height="8"  rx="4"   fill="#e2e8f0" opacity="0.6"/>
  <rect x="96" y="346" width="104" height="8"  rx="4"   fill="#e2e8f0" opacity="0.4"/>
  <!-- Lightning bolt — all points inside document (x:72–374, y:62–450) -->
  <polygon
    points="310,105 272,220 298,220 260,380 308,236 280,236 322,105"
    fill="#fbbf24" stroke="#f59e0b" stroke-width="3" stroke-linejoin="round"/>
</svg>
